<svg width="35" height="33" viewBox="0 0 35 33" fill="none" xmlns="http://www.w3.org/2000/svg">
<path d="M22.2614 4.484L30.0414 14.3948L25.1693 26.6203L17.399 16.6593L22.2614 4.484Z" fill="#C5E9DA" stroke="#36B37E" stroke-width="0.474153" stroke-miterlimit="10" stroke-linejoin="round"/>
<path d="M17.3987 16.6577L25.169 26.6187L12.4766 27.6333L4.82275 18.3097L17.3987 16.6577Z" fill="white" stroke="#36B37E" stroke-width="0.474153" stroke-miterlimit="10" stroke-linejoin="round"/>
<path d="M17.3987 16.6582L13.4502 10.6988L4.82272 18.3102L17.3987 16.6582Z" fill="white" stroke="#36B37E" stroke-width="0.474153" stroke-miterlimit="10" stroke-linejoin="round"/>
<path d="M13.4497 10.6993L22.2605 4.4834L17.3981 16.6587L13.4497 10.6993Z" fill="white" stroke="#36B37E" stroke-width="0.474153" stroke-miterlimit="10" stroke-linejoin="round"/>
<path d="M4.82215 18.3106L9.97328 6.09742L13.4497 10.6992L4.82215 18.3106Z" fill="#C5E9DA" stroke="#36B37E" stroke-width="0.474153" stroke-miterlimit="10" stroke-linejoin="round"/>
<path d="M22.2605 4.4834L9.97331 6.09747L13.4497 10.6993L22.2605 4.4834Z" fill="white" stroke="#36B37E" stroke-width="0.474153" stroke-miterlimit="10" stroke-linejoin="round"/>
<path d="M15.4227 13.671L16.6059 15.4737L15.4227 13.671Z" fill="#644DF2"/>
<path d="M17.9375 15.2988L16.6061 15.4737L17.3982 16.6588L17.9375 15.2988Z" fill="#36B37E"/>
<path d="M17.9375 15.2999L25.769 25.106L26.6027 23.0057L18.7594 13.2338L17.9375 15.2999Z" fill="#36B37E"/>
<path d="M19.388 11.6817L27.2195 21.4878L28.0532 19.3876L20.2099 9.61563L19.388 11.6817Z" fill="#36B37E"/>
<path d="M19.3884 11.6816L14.4478 12.3306L15.4235 13.6711L18.76 13.2328L19.3884 11.6816Z" fill="#36B37E"/>
<path d="M20.2097 9.61553L13.7934 10.4584L18.2887 7.2897L21.3044 6.89355L20.2097 9.61553Z" fill="#36B37E"/>
<path d="M21.3046 6.89361L22.3976 8.38179L23.3956 5.91728L22.2608 4.48354L21.3046 6.89361Z" fill="#172B4D"/>
<path d="M21.3041 10.9895L22.4347 12.3912L23.5175 9.70342L22.3988 8.26757L21.3041 10.9895Z" fill="#172B4D"/>
<path d="M23.5174 9.70318L24.6104 11.1914L25.6084 8.72685L24.4896 7.29101L23.5174 9.70318Z" fill="#172B4D"/>
<path d="M13.1543 10.3138L13.4497 10.6992L9.43524 7.34296L9.97328 6.09742L13.1543 10.3138Z" fill="#172B4D"/>
<path d="M21.2132 26.9431L19.6986 25.1024L16.8628 25.377L18.355 27.1717L21.2132 26.9431Z" fill="#36B37E"/>
<path d="M17.4428 25.3171L15.3106 25.483L13.8184 23.6883L15.9624 23.4882L11.1106 17.4843C11.1106 17.4843 5.65675 18.2007 4.82263 18.3103C3.9885 18.4199 12.4605 27.636 12.4605 27.636L18.8868 27.1182L17.4428 25.3171Z" fill="#172B4D"/>
</svg>
