<svg width="1440" height="1037" viewBox="0 0 1440 1037" fill="none" xmlns="http://www.w3.org/2000/svg">
<g id="background">
<g id="bg">
<path id="Vector" d="M1119.68 -233.681L918.188 38.4373" stroke="#A5ADBA" stroke-miterlimit="10" stroke-linecap="round" stroke-dasharray="1 1"/>
<path id="Vector_2" d="M1267.72 -40.5176L996.318 137.204" stroke="#A5ADBA" stroke-miterlimit="10" stroke-linecap="round" stroke-dasharray="1 1"/>
<path id="Vector_3" d="M1348.68 198.679L1040.01 260.153" stroke="#A5ADBA" stroke-miterlimit="10" stroke-linecap="round" stroke-dasharray="1 1"/>
<path id="Vector_4" d="M1352.79 454.48L1043.87 392.715" stroke="#A5ADBA" stroke-miterlimit="10" stroke-linecap="round" stroke-dasharray="1 1"/>
<path id="Vector_5" d="M1279.03 696.59L1007.63 518.868" stroke="#A5ADBA" stroke-miterlimit="10" stroke-linecap="round" stroke-dasharray="1 1"/>
<path id="Vector_6" d="M1136.9 895.579L935.409 623.17" stroke="#A5ADBA" stroke-miterlimit="10" stroke-linecap="round" stroke-dasharray="1 1"/>
<path id="Vector_7" d="M943.374 1027.56L836.201 693.385" stroke="#A5ADBA" stroke-miterlimit="10" stroke-linecap="round" stroke-dasharray="1 1"/>
<path id="Vector_8" d="M710.524 949.771L710.524 720.771" stroke="#A5ADBA" stroke-miterlimit="10" stroke-linecap="round" stroke-dasharray="1 1"/>
<path id="Vector_9" d="M498.491 1036.3L605.921 702.125" stroke="#A5ADBA" stroke-miterlimit="10" stroke-linecap="round" stroke-dasharray="1 1"/>
<path id="Vector_10" d="M301.107 911.895L502.602 639.777" stroke="#A5ADBA" stroke-miterlimit="10" stroke-linecap="round" stroke-dasharray="1 1"/>
<path id="Vector_11" d="M152.813 718.732L424.472 541.011" stroke="#A5ADBA" stroke-miterlimit="10" stroke-linecap="round" stroke-dasharray="1 1"/>
<path id="Vector_12" d="M71.855 479.828L380.78 418.062" stroke="#A5ADBA" stroke-miterlimit="10" stroke-linecap="round" stroke-dasharray="1 1"/>
<path id="Vector_13" d="M68 223.734L376.925 285.5" stroke="#A5ADBA" stroke-miterlimit="10" stroke-linecap="round" stroke-dasharray="1 1"/>
<path id="Vector_14" d="M141.503 -18.375L413.163 159.347" stroke="#A5ADBA" stroke-miterlimit="10" stroke-linecap="round" stroke-dasharray="1 1"/>
<path id="Vector_15" d="M283.63 -217.365L485.383 55.044" stroke="#A5ADBA" stroke-miterlimit="10" stroke-linecap="round" stroke-dasharray="1 1"/>
</g>
<g id="icon-7" clip-path="url(#clip0_215751_60)">
<path id="Vector_16" d="M1138.27 300.424L1256.14 178.735L1427.88 221.388L1309.33 343.039L1138.27 300.424Z" fill="#C5E9DA" stroke="#36B37E" stroke-width="2.29137" stroke-miterlimit="10" stroke-linejoin="round"/>
<path id="Vector_17" d="M1309.33 343.039L1427.88 221.388L1464.51 388.633L1354.23 507.573L1309.33 343.039Z" fill="white" stroke="#36B37E" stroke-width="2.29137" stroke-miterlimit="10" stroke-linejoin="round"/>
<path id="Vector_18" d="M1309.33 343.038L1237.12 406.489L1354.23 507.572L1309.33 343.038Z" fill="white" stroke="#36B37E" stroke-width="2.29137" stroke-miterlimit="10" stroke-linejoin="round"/>
<path id="Vector_19" d="M1237.12 406.49L1138.27 300.424L1309.33 343.039L1237.12 406.49Z" fill="white" stroke="#36B37E" stroke-width="2.29137" stroke-miterlimit="10" stroke-linejoin="round"/>
<path id="Vector_20" d="M1354.23 507.573L1182.14 461.18L1237.12 406.49L1354.23 507.573Z" fill="#C5E9DA" stroke="#36B37E" stroke-width="2.29137" stroke-miterlimit="10" stroke-linejoin="round"/>
<path id="Vector_21" d="M1138.27 300.424L1182.14 461.18L1237.12 406.49L1138.27 300.424Z" fill="white" stroke="#36B37E" stroke-width="2.29137" stroke-miterlimit="10" stroke-linejoin="round"/>
<g id="Group">
<path id="Vector_22" d="M1273.12 374.792L1294.98 355.747L1273.12 374.792Z" fill="#644DF2"/>
</g>
<path id="Vector_23" d="M1290.23 338.329L1294.98 355.748L1309.33 343.039L1290.23 338.329Z" fill="#36B37E"/>
<path id="Vector_24" d="M1290.23 338.329L1406.61 216.145L1377.11 208.861L1261.21 331.141L1290.23 338.329Z" fill="#36B37E"/>
<path id="Vector_25" d="M1239.4 325.592L1355.78 203.408L1326.28 196.124L1210.38 318.404L1239.4 325.592Z" fill="#36B37E"/>
<path id="Vector_26" d="M1239.4 325.592L1257.04 390.23L1273.12 374.792L1261.21 331.14L1239.4 325.592Z" fill="#36B37E"/>
<path id="Vector_27" d="M1210.38 318.404L1233.28 402.35L1182.89 348.23L1172.12 308.775L1210.38 318.404Z" fill="#36B37E"/>
<path id="Vector_28" d="M1172.12 308.775L1189.96 291.506L1155.31 282.697L1138.27 300.424L1172.12 308.775Z" fill="#172B4D"/>
<path id="Vector_29" d="M1226.69 301.326L1243.3 283.713L1205.52 274.179L1188.43 291.697L1226.69 301.326Z" fill="#172B4D"/>
<path id="Vector_30" d="M1205.52 274.179L1223.36 256.909L1188.71 248.1L1171.62 265.618L1205.52 274.179Z" fill="#172B4D"/>
<path id="Vector_31" d="M1232.52 411.127L1237.12 406.49L1199.71 466.081L1182.14 461.18L1232.52 411.127Z" fill="#172B4D"/>
<path id="Vector_32" d="M1439.4 273.492L1417.63 297.021L1426.45 334.301L1447.65 311.154L1439.4 273.492Z" fill="#36B37E"/>
<path id="Vector_33" d="M1424.6 326.688L1430.69 354.791L1409.5 377.938L1402.93 349.739L1331.78 425.305C1331.78 425.305 1351.25 496.659 1354.23 507.572C1357.2 518.485 1464.56 388.842 1464.56 388.842L1445.97 304.171L1424.6 326.688Z" fill="#172B4D"/>
</g>
<g id="icon-6" opacity="0.88" clip-path="url(#clip1_215751_60)">
<g id="Group_2">
<path id="Vector_34" d="M419.707 780.102L378.867 844.873L298.941 841.953L340.087 777.135L419.707 780.102Z" fill="#C5E9DA" stroke="#36B37E" stroke-width="1.11251" stroke-miterlimit="10" stroke-linejoin="round"/>
<path id="Vector_35" d="M340.088 777.134L298.941 841.953L267.213 771.376L304.949 708.525L340.088 777.134Z" fill="white" stroke="#36B37E" stroke-width="1.11251" stroke-miterlimit="10" stroke-linejoin="round"/>
<path id="Vector_36" d="M340.088 777.134L366.135 742.364L304.949 708.525L340.088 777.134Z" fill="white" stroke="#36B37E" stroke-width="1.11251" stroke-miterlimit="10" stroke-linejoin="round"/>
<path id="Vector_37" d="M366.135 742.364L419.707 780.102L340.088 777.134L366.135 742.364Z" fill="white" stroke="#36B37E" stroke-width="1.11251" stroke-miterlimit="10" stroke-linejoin="round"/>
<path id="Vector_38" d="M304.949 708.525L385.375 713.068L366.135 742.364L304.949 708.525Z" fill="#C5E9DA" stroke="#36B37E" stroke-width="1.11251" stroke-miterlimit="10" stroke-linejoin="round"/>
<path id="Vector_39" d="M419.707 780.102L385.375 713.068L366.135 742.364L419.707 780.102Z" fill="white" stroke="#36B37E" stroke-width="1.11251" stroke-miterlimit="10" stroke-linejoin="round"/>
<g id="Group_3">
<path id="Vector_40" d="M353.155 759.727L345.253 770.181L353.155 759.727Z" fill="#644DF2"/>
</g>
<path id="Vector_41" d="M348.973 777.444L345.253 770.181L340.088 777.135L348.973 777.444Z" fill="#36B37E"/>
<path id="Vector_42" d="M348.973 777.444L308.838 842.296L322.562 842.779L362.478 777.929L348.973 777.444Z" fill="#36B37E"/>
<path id="Vector_43" d="M372.639 778.359L332.504 843.211L346.228 843.694L386.144 778.844L372.639 778.359Z" fill="#36B37E"/>
<path id="Vector_44" d="M372.64 778.358L358.835 751.405L353.155 759.727L362.478 777.929L372.64 778.358Z" fill="#36B37E"/>
<path id="Vector_45" d="M386.144 778.844L368.216 743.839L395.533 763.099L403.959 779.551L386.144 778.844Z" fill="#36B37E"/>
<path id="Vector_46" d="M403.96 779.551L397.673 788.846L413.818 789.525L419.707 780.102L403.96 779.551Z" fill="#172B4D"/>
<path id="Vector_47" d="M380.515 787.912L374.801 797.246L392.397 797.955L398.331 788.619L380.515 787.912Z" fill="#172B4D"/>
<path id="Vector_48" d="M392.397 797.955L386.111 807.25L402.256 807.93L408.189 798.594L392.397 797.955Z" fill="#172B4D"/>
<path id="Vector_49" d="M367.738 739.886L366.135 742.364L377.147 712.532L385.375 713.068L367.738 739.886Z" fill="#172B4D"/>
<path id="Vector_50" d="M289.011 819.975L296.454 807.547L289.09 791.876L281.865 804.082L289.011 819.975Z" fill="#36B37E"/>
<path id="Vector_51" d="M290.616 795.07L285.312 783.205L292.538 770.999L298.061 782.862L322.518 742.83C322.518 742.83 307.28 713.076 304.949 708.525C302.618 703.975 267.168 771.288 267.168 771.288L283.256 807.014L290.616 795.07Z" fill="#172B4D"/>
</g>
</g>
<g id="icon-5" opacity="0.32" clip-path="url(#clip2_215751_60)">
<path id="Vector_52" d="M539.39 94.1903L557.644 117.444L546.213 146.129L527.981 122.757L539.39 94.1903Z" fill="#C5E9DA" stroke="#36B37E" stroke-width="1.11251" stroke-miterlimit="10" stroke-linejoin="round"/>
<path id="Vector_53" d="M527.981 122.757L546.213 146.128L516.432 148.509L498.474 126.633L527.981 122.757Z" fill="white" stroke="#36B37E" stroke-width="1.11251" stroke-miterlimit="10" stroke-linejoin="round"/>
<path id="Vector_54" d="M527.981 122.756L518.717 108.774L498.474 126.632L527.981 122.756Z" fill="white" stroke="#36B37E" stroke-width="1.11251" stroke-miterlimit="10" stroke-linejoin="round"/>
<path id="Vector_55" d="M518.717 108.774L539.39 94.1895L527.981 122.757L518.717 108.774Z" fill="white" stroke="#36B37E" stroke-width="1.11251" stroke-miterlimit="10" stroke-linejoin="round"/>
<path id="Vector_56" d="M498.474 126.633L510.56 97.9766L518.717 108.774L498.474 126.633Z" fill="#C5E9DA" stroke="#36B37E" stroke-width="1.11251" stroke-miterlimit="10" stroke-linejoin="round"/>
<path id="Vector_57" d="M539.39 94.1895L510.56 97.9766L518.717 108.774L539.39 94.1895Z" fill="white" stroke="#36B37E" stroke-width="1.11251" stroke-miterlimit="10" stroke-linejoin="round"/>
<g id="Group_4">
<path id="Vector_58" d="M523.346 115.747L526.123 119.976L523.346 115.747Z" fill="#644DF2"/>
</g>
<path id="Vector_59" d="M529.247 119.565L526.123 119.976L527.981 122.756L529.247 119.565Z" fill="#36B37E"/>
<path id="Vector_60" d="M529.246 119.566L547.622 142.574L549.578 137.646L531.175 114.718L529.246 119.566Z" fill="#36B37E"/>
<path id="Vector_61" d="M532.649 111.078L551.024 134.087L552.98 129.159L534.578 106.231L532.649 111.078Z" fill="#36B37E"/>
<path id="Vector_62" d="M532.649 111.078L521.057 112.601L523.346 115.746L531.175 114.718L532.649 111.078Z" fill="#36B37E"/>
<path id="Vector_63" d="M534.577 106.23L519.523 108.208L530.07 100.773L537.146 99.8438L534.577 106.23Z" fill="#36B37E"/>
<path id="Vector_64" d="M537.146 99.8439L539.711 103.336L542.052 97.5531L539.39 94.1891L537.146 99.8439Z" fill="#172B4D"/>
<path id="Vector_65" d="M537.145 109.455L539.798 112.743L542.338 106.437L539.714 103.068L537.145 109.455Z" fill="#172B4D"/>
<path id="Vector_66" d="M542.339 106.437L544.903 109.928L547.245 104.146L544.62 100.777L542.339 106.437Z" fill="#172B4D"/>
<path id="Vector_67" d="M518.024 107.869L518.717 108.774L509.298 100.899L510.56 97.9766L518.024 107.869Z" fill="#172B4D"/>
<path id="Vector_68" d="M536.932 146.887L533.379 142.568L526.725 143.213L530.226 147.424L536.932 146.887Z" fill="#36B37E"/>
<path id="Vector_69" d="M528.085 143.073L523.082 143.462L519.581 139.251L524.611 138.781L513.228 124.694C513.228 124.694 500.431 126.375 498.474 126.632C496.517 126.89 516.395 148.514 516.395 148.514L531.473 147.299L528.085 143.073Z" fill="#172B4D"/>
</g>
<g id="icon-4" clip-path="url(#clip3_215751_60)">
<path id="Vector_70" d="M54.2924 349.725L202.988 257.453C202.988 257.453 83.7305 445.868 81.7308 445.056C81.7308 445.056 63.1872 375.239 54.2924 349.725Z" fill="white" stroke="#36B37E" stroke-width="1.43899" stroke-miterlimit="10" stroke-linejoin="round"/>
<path id="Vector_71" d="M202.988 257.453L207.471 263.623C207.471 263.623 212.303 458.183 211.999 460.079C211.695 461.975 214.678 463.808 209.995 465.012C205.312 466.216 122.384 453.184 101.991 449.093C81.7309 445.056 81.7309 445.056 81.7309 445.056L202.988 257.453Z" fill="#36B37E"/>
<path id="Vector_72" d="M110.736 338.485L147.14 436.215L209.45 402.506L206.954 300.068L110.736 338.485Z" fill="#C5E9DA"/>
<g id="Mask Group">
<mask id="mask0_215751_60" style="mask-type:alpha" maskUnits="userSpaceOnUse" x="111" y="300" width="99" height="137">
<path id="Vector_73" d="M111.216 339.19L147.62 436.92L209.93 403.211L207.434 300.773L111.216 339.19Z" fill="#C5E9DA"/>
</mask>
<g mask="url(#mask0_215751_60)">
<g id="Group_5">
<g id="Group_6">
<path id="Vector_74" d="M200.527 398.561L183.871 395.211L183.487 416.8L165.573 413.871L164.431 437.327L183.017 439.752L200.694 442.118L217.463 444.426L216.779 422.404L200.494 419.671L200.527 398.561Z" fill="#36B37E"/>
<path id="Vector_75" d="M166.439 391.858L183.871 395.212L184.221 374.852L167.46 370.994L166.439 391.858Z" fill="#36B37E"/>
<path id="Vector_76" d="M148.208 388.179L146.671 410.697L165.573 413.872L166.44 391.858L148.208 388.179Z" fill="#36B37E"/>
<path id="Vector_77" d="M148.208 388.179L149.658 367.023L131.002 362.861L128.935 384.387L148.208 388.179Z" fill="#36B37E"/>
<path id="Vector_78" d="M128.935 384.388L108.809 380.405L105.796 403.878L102.588 428.979L124.378 431.928L144.992 434.711L146.671 410.698L126.727 407.41L128.935 384.388Z" fill="#36B37E"/>
<path id="Vector_79" d="M246.013 407.411L244.672 388.538L230.607 385.309L215.821 381.943L215.334 363.262L200.39 359.52L184.725 355.642L184.221 374.852L200.448 378.493L200.527 398.562L216.384 401.586L216.779 422.405L232.344 425L231.465 404.607L246.013 407.411Z" fill="#36B37E"/>
<path id="Vector_80" d="M228.982 349.546L214.867 345.676L215.334 363.261L229.824 366.974L228.982 349.546Z" fill="#36B37E"/>
<path id="Vector_81" d="M168.26 351.437L184.725 355.641L185.037 337.285L169.135 332.844L152.378 328.211L151.074 347.096L149.658 367.023L167.46 370.993L168.26 351.437Z" fill="#36B37E"/>
<path id="Vector_82" d="M133.035 342.563L114.196 337.705L111.546 358.374L131.002 362.861L133.035 342.563Z" fill="#36B37E"/>
<path id="Vector_83" d="M90.915 353.72L87.3737 376.201L108.809 380.405L111.546 358.374L90.915 353.72Z" fill="#36B37E"/>
</g>
</g>
</g>
</g>
<path id="Vector_84" d="M110.736 338.485L164.509 316.996L125.751 378.755L110.736 338.485Z" fill="#172B4D"/>
<path id="Vector_85" d="M81.3726 332.769L69.728 401.194" stroke="#36B37E" stroke-width="1.43899" stroke-miterlimit="10" stroke-linejoin="round"/>
<path id="Vector_86" d="M78.9437 347.159L74.2943 337.194L81.3726 332.769L78.9437 347.159Z" fill="#172B4D"/>
<path id="Vector_87" d="M174.728 275.018L189.11 278.997" stroke="#36B37E" stroke-width="1.43899" stroke-miterlimit="10" stroke-linejoin="round"/>
<path id="Vector_88" d="M121.022 368.603L156.48 458.338" stroke="white" stroke-width="1.43899" stroke-miterlimit="10" stroke-linejoin="round"/>
</g>
<g id="icon-3" clip-path="url(#clip4_215751_60)">
<path id="Vector_89" d="M1082.3 106.296L973.432 91.8536L927.976 47.7559L934.009 -63.6214L948.795 -84.9283L981.777 -80.3161L1088.14 34.2942L1082.3 106.296Z" fill="#C5E9DA" stroke="#36B37E" stroke-width="1.51665" stroke-miterlimit="10" stroke-linejoin="round"/>
<path id="Vector_90" d="M1010.28 96.7483L1007.76 64.7269C1007.76 64.7269 996.766 94.9395 992.192 94.3493C987.492 93.6726 1010.28 96.7483 1010.28 96.7483Z" fill="#36B37E"/>
<path id="Vector_91" d="M1036.3 100.221L1061.25 5.4781" stroke="#36B37E" stroke-width="1.51665" stroke-miterlimit="10"/>
<path id="Vector_92" d="M1054.96 29.1729L1053.09 -3.50967" stroke="#36B37E" stroke-width="1.51665" stroke-miterlimit="10"/>
<path id="Vector_93" d="M933.495 -40.1956L977.99 -11.2963L989.004 1.60045L977.453 10.243L932.71 -26.2529L933.495 -40.1956Z" fill="white" stroke="#36B37E" stroke-width="1.51665"/>
<path id="Vector_94" d="M1007.32 80.1289L1007.66 30.701" stroke="#36B37E" stroke-width="1.51665" stroke-miterlimit="10"/>
<path id="Vector_95" d="M945.147 -23.9389L932.272 -30.6582L928.031 47.8105L973.487 91.9082L977.433 11.2043L971.717 1.88396L945.147 -23.9389Z" fill="#172B4D"/>
</g>
<g id="icon-2" opacity="0.48" clip-path="url(#clip5_215751_60)">
<path id="Vector_96" d="M568.805 625.853L652.36 676.82C652.36 676.82 664.732 686.566 653.099 707.557C641.466 728.548 627.373 723.457 627.373 723.457L540.596 673.513C540.596 673.513 530.313 664.044 540.625 644.624C552.555 622.038 568.805 625.853 568.805 625.853Z" fill="#C5E9DA" stroke="#36B37E" stroke-width="0.736762" stroke-miterlimit="10"/>
<path id="Vector_97" d="M568.805 625.852C568.805 625.852 580.647 633.114 568.013 657.015C556.14 679.402 540.596 673.513 540.596 673.513C540.596 673.513 530.608 663.207 540.625 644.624C550.643 626.041 562.666 625.71 568.805 625.852Z" fill="#36B37E"/>
<path id="Vector_98" d="M645.728 672.74C645.728 672.74 638.001 684.502 617.66 692.629C596.086 701.268 583.799 698.378 583.799 698.378L601.23 708.442C601.23 708.442 610.378 710.374 632.929 699.848C651.339 691.273 656.597 682.812 656.597 682.812L652.259 676.791L645.728 672.74Z" fill="#172B4D"/>
<path id="Vector_99" d="M616.106 654.934C616.106 654.934 608.626 665.466 586.497 672.643C564.369 679.821 549.179 678.535 549.179 678.535L566.61 688.6C566.61 688.6 580.733 690.392 600.674 682.15C619.154 674.463 629.705 663.244 629.705 663.244L619.015 656.694L616.106 654.934Z" fill="#36B37E"/>
<path id="Vector_100" d="M568.013 657.015C568.013 657.015 591.201 658.764 604.83 647.781L589.88 638.702C589.88 638.702 583.061 641.292 573.733 639.796C573.733 639.796 571.276 650.582 568.013 657.015Z" fill="#172B4D"/>
<path id="Vector_101" d="M559.159 647.851L556.217 651.665L557.201 669.135C557.201 669.135 563.967 664.471 568.012 657.016L564.425 648.392L559.159 647.851Z" fill="white" stroke="#36B37E" stroke-width="0.736762" stroke-miterlimit="10"/>
<path id="Vector_102" d="M572.422 631.178C572.422 631.178 571.422 626.932 568.77 625.789L554.734 646.088C554.734 646.088 559.618 647.766 560.833 648.441C562.084 649.181 564.378 650.439 564.378 650.439L572.985 644.84C573.02 644.905 575.97 638.056 572.422 631.178Z" fill="white" stroke="#36B37E" stroke-width="0.736762" stroke-miterlimit="10"/>
<path id="Vector_103" d="M655.436 702.646C655.436 702.646 642.907 711.506 627.623 714.312C613.419 716.943 612.107 714.721 612.107 714.721L627.373 723.457C627.373 723.457 633.895 725.662 642.064 720.642C650.233 715.623 655.436 702.646 655.436 702.646Z" fill="#36B37E"/>
<path id="Vector_104" d="M560.868 648.505C560.868 648.505 559.774 641.955 558.462 639.734C557.15 637.512 556.858 636.832 556.858 636.832L553.754 642.335L554.769 646.152L560.868 648.505Z" fill="white" stroke="#36B37E" stroke-width="0.736762" stroke-miterlimit="10"/>
<path id="Vector_105" d="M556.153 651.701L551.825 650.725L536.312 663.17C536.312 663.17 535.914 664.737 538.142 669.987L539.519 672.173L557.892 654.696C557.827 654.732 558.348 652.171 556.153 651.701Z" fill="white" stroke="#36B37E" stroke-width="0.736762" stroke-miterlimit="10"/>
<path id="Vector_106" d="M556.152 651.701C556.152 651.701 550.405 661.864 550.627 661.657C550.849 661.45 559.463 656.016 559.463 656.016C559.463 656.016 559.151 651.643 556.152 651.701Z" fill="white" stroke="#36B37E" stroke-width="0.736762" stroke-miterlimit="10"/>
</g>
<g id="icon-1" clip-path="url(#clip6_215751_60)">
<path id="Vector_107" d="M943.353 815.519L1036.29 656.525C1036.29 656.525 1054.19 632.904 1094.09 654.049C1134 675.195 1124.92 701.889 1124.92 701.889L1034.01 866.909C1034.01 866.909 1016.56 886.59 979.663 867.873C936.749 846.226 943.353 815.519 943.353 815.519Z" fill="#C5E9DA" stroke="#36B37E" stroke-width="1.38636" stroke-miterlimit="10"/>
<path id="Vector_108" d="M943.354 815.518C943.354 815.518 956.598 792.985 1002.01 815.911C1044.55 837.457 1034.02 866.909 1034.02 866.909C1034.02 866.909 1014.98 886.064 979.664 867.873C944.349 849.682 943.302 827.074 943.354 815.518Z" fill="#36B37E"/>
<path id="Vector_109" d="M1028.85 669.146C1028.85 669.146 1051.25 683.267 1067.26 721.25C1084.27 761.533 1079.27 784.753 1079.27 784.753L1097.59 751.603C1097.59 751.603 1100.9 734.324 1080.3 692.269C1063.52 657.935 1047.42 648.342 1047.42 648.342L1036.24 656.715L1028.85 669.146Z" fill="#172B4D"/>
<path id="Vector_110" d="M996.398 725.503C996.398 725.503 1016.47 739.205 1030.76 780.583C1045.04 821.961 1043.16 850.584 1043.16 850.584L1061.48 817.434C1061.48 817.434 1064.35 790.802 1048.14 753.577C1033.03 719.08 1011.55 699.624 1011.55 699.624L999.606 719.969L996.398 725.503Z" fill="#36B37E"/>
<path id="Vector_111" d="M1002.01 815.911C1002.01 815.911 1004.48 772.223 983.339 746.97L966.785 775.417C966.785 775.417 971.898 788.154 969.414 805.756C969.414 805.756 989.793 809.999 1002.01 815.911Z" fill="#172B4D"/>
<path id="Vector_112" d="M985.08 832.89L992.36 838.292L1025.19 835.824C1025.19 835.824 1016.18 823.26 1002.01 815.911L985.912 822.965L985.08 832.89Z" fill="white" stroke="#36B37E" stroke-width="1.38636" stroke-miterlimit="10"/>
<path id="Vector_113" d="M953.245 808.527C953.245 808.527 945.292 810.557 943.234 815.588L981.919 841.278C981.919 841.278 984.904 832.031 986.132 829.721C987.479 827.342 989.764 822.981 989.764 822.981L978.929 806.986C979.049 806.916 966.059 801.609 953.245 808.527Z" fill="white" stroke="#36B37E" stroke-width="1.38636" stroke-miterlimit="10"/>
<path id="Vector_114" d="M1084.77 649.826C1084.77 649.826 1101.88 673.084 1107.7 701.741C1113.15 728.37 1109.02 730.917 1109.02 730.917L1124.92 701.888C1124.92 701.888 1128.83 689.541 1119.1 674.349C1109.37 659.157 1084.77 649.826 1084.77 649.826Z" fill="#36B37E"/>
<path id="Vector_115" d="M986.252 829.652C986.252 829.652 973.967 831.942 969.834 834.488C965.701 837.034 964.431 837.607 964.431 837.607L974.894 843.253L982.039 841.209L986.252 829.652Z" fill="white" stroke="#36B37E" stroke-width="1.38636" stroke-miterlimit="10"/>
<path id="Vector_116" d="M992.429 838.411L990.746 846.587L1014.71 875.335C1014.71 875.335 1017.67 876.027 1027.47 871.65L1031.53 868.983L998.003 835.033C998.072 835.153 993.236 834.263 992.429 838.411Z" fill="white" stroke="#36B37E" stroke-width="1.38636" stroke-miterlimit="10"/>
<path id="Vector_117" d="M992.43 838.411C992.43 838.411 1011.75 848.866 1011.36 848.456C1010.96 848.045 1000.43 832.031 1000.43 832.031C1000.43 832.031 992.215 832.772 992.43 838.411Z" fill="white" stroke="#36B37E" stroke-width="1.38636" stroke-miterlimit="10"/>
</g>
</g>
<defs>
<clipPath id="clip0_215751_60">
<rect width="302.379" height="345.234" fill="white" transform="translate(1114.2 216.345) rotate(-15.2643)"/>
</clipPath>
<clipPath id="clip1_215751_60">
<rect width="136.667" height="156.036" fill="white" transform="translate(438.162 815.057) rotate(152.88)"/>
</clipPath>
<clipPath id="clip2_215751_60">
<rect width="52.7646" height="60.2428" fill="white" transform="translate(554.495 92.0137) rotate(82.5164)"/>
</clipPath>
<clipPath id="clip3_215751_60">
<rect width="217" height="220.885" fill="white" transform="translate(107.136 217.736) rotate(22.1095)"/>
</clipPath>
<clipPath id="clip4_215751_60">
<rect width="220.218" height="147.722" fill="white" transform="translate(1053.92 148.649) rotate(-145.241)"/>
</clipPath>
<clipPath id="clip5_215751_60">
<rect width="123.408" height="98.3577" fill="white" transform="translate(610.087 597.736) rotate(61.0741)"/>
</clipPath>
<clipPath id="clip6_215751_60">
<rect width="232.215" height="185.079" fill="white" transform="translate(889 738.844) rotate(-30)"/>
</clipPath>
</defs>
</svg>
