<svg width="25" height="24" viewBox="0 0 25 24" fill="none" xmlns="http://www.w3.org/2000/svg">
<path d="M11.5475 22C16.2442 22 19.1667 18.5392 19.1667 14.0742C19.1667 12.3908 18.8925 10.8708 16.9817 10.4142C17.4467 9.14083 18.7883 5.4575 18.7883 4.2775C18.7883 3.23833 18.1633 2.3675 17.0492 2.3675C15.2733 2.3675 13.6817 7.51167 13.1833 8.73833C12.7975 7.625 10.9908 2 9.39834 2C8.16084 2 7.58001 2.89417 7.58001 4.01917C7.58001 5.39833 8.94084 8.9725 9.43417 10.3475C9.18417 10.2575 8.91334 10.1792 8.6375 10.1792C7.70584 10.1792 6.715 11.3158 6.715 12.2342C6.715 12.5817 6.91 13.07 7.03334 13.3942C5.565 13.785 5 14.7458 5 16.195C4.99584 19.015 7.71917 22 11.5475 22V22ZM15.5725 6.21917C15.7325 5.73833 16.4125 3.7075 17.0492 3.7075C17.3917 3.7075 17.4833 4.055 17.4833 4.3325C17.4833 5.07833 15.9475 9.2 15.6083 10.1133L14.255 9.87917L15.5725 6.21917ZM8.83 3.8875V3.88667C8.83 3.42167 9.40751 2.10167 10.6725 5.72667L12.05 9.645C11.4292 9.59417 10.9475 9.5275 10.6417 9.7C10.2075 8.575 8.83 5.02417 8.83 3.8875V3.8875ZM8.73834 11.5308L8.73917 11.5317C9.90501 11.5317 11.41 15.2267 11.41 15.7267C11.41 15.9258 11.215 16.1717 10.9883 16.1717C10.1558 16.1717 7.92667 13.1675 7.92667 12.355C7.93 12.0542 8.43167 11.5308 8.73834 11.5308V11.5308ZM7.39834 14.5892C7.85167 14.5892 9.55917 16.945 9.55917 17.445C9.55917 17.6367 9.25251 17.7692 9.09417 17.7692C8.45334 17.7692 8.2025 17.1633 7.06084 15.7617C5.87834 16.9217 7.87667 19.1558 9.38167 19.1558C10.42 19.1558 11.0967 18.2108 10.8942 17.515C11.0417 17.515 11.2242 17.5267 11.36 17.4917C11.4042 18.55 11.7225 19.8117 13.02 19.9017C13.02 19.8667 13.1 19.6242 13.1 19.6125C13.1 18.9325 12.6783 18.3392 12.6783 17.6475C12.6783 16.5417 13.5417 15.4717 14.4175 14.8467C14.7358 14.6125 15.1225 14.4675 15.4958 14.335C15.8825 14.1908 16.2925 14.0225 16.5858 13.7333C16.5417 13.2958 16.3592 12.9092 15.9133 12.9092C14.8108 12.9092 11.1133 13.0658 11.1133 11.3583C11.1133 11.0967 11.1175 10.8467 11.8067 10.8467C13.0925 10.8467 16.3567 11.1592 17.3117 11.9833C18.0317 12.6125 18.2792 16.405 16.0775 18.8075L16.075 18.8083C14.9167 20.0583 13.4358 20.7067 11.7083 20.7067C9.34417 20.7067 7.47667 19.4333 6.5775 17.2575C5.89667 15.5625 6.72917 14.5892 7.39834 14.5892V14.5892ZM12.1492 13.8858C12.5367 14.0075 12.9342 14.0433 13.3325 14.1208C13.0375 14.3317 12.7758 14.59 12.5242 14.8667C12.4125 14.535 12.2767 14.2108 12.1492 13.8858Z" fill="#505F79"/>
</svg>
