<svg width="25" height="24" viewBox="0 0 25 24" fill="none" xmlns="http://www.w3.org/2000/svg">
<path d="M21.9852 9.46114C21.9852 8.32124 21.6192 7.25043 20.9205 6.31779C21.1867 5.41969 21.2532 4.27979 21.1867 2.96718C21.1534 2.41451 20.7209 2 20.1885 2C19.8891 2 17.3604 2.03454 15.8965 3.38169C14.6321 3.1399 13.3013 3.1399 12.0037 3.38169C10.573 2.03454 8.04433 2 7.71162 2C7.17927 2 6.74674 2.41451 6.71346 2.96718C6.61365 4.27979 6.71346 5.41969 6.97964 6.31779C6.28093 7.28497 5.91494 8.35579 5.91494 9.46114C5.91494 11.8791 7.71162 14.0553 10.4399 15.0915C10.3401 15.2988 10.2735 15.5406 10.207 15.7824C7.31236 15.4715 5.94822 12.7427 5.88167 12.639C5.64877 12.1209 5.04988 11.9136 4.5508 12.19C4.05173 12.4318 3.8521 13.0535 4.11827 13.5717C4.18481 13.7444 6.01476 17.4404 10.0406 17.8549V20.9637C10.0406 21.5509 10.4732 22 11.0388 22H16.8613C17.427 22 17.8595 21.5509 17.8595 20.9637V16.8532C17.8595 16.2314 17.7264 15.6442 17.4935 15.1261C20.1885 14.0553 21.9852 11.9136 21.9852 9.46114Z" fill="#505F79"/>
</svg>
