<svg width="25" height="24" viewBox="0 0 25 24" fill="none" xmlns="http://www.w3.org/2000/svg">
<path d="M22.0503 2.39442C21.717 1.99575 21.1503 1.89609 20.717 2.19509L18.7837 3.52399C17.8837 2.56054 16.617 2.02898 15.2503 2.02898C12.5503 2.02898 10.317 4.22166 10.317 6.94591C10.317 7.34458 10.3503 7.71002 10.4503 8.07547C8.11699 7.57713 6.71699 5.88279 6.18366 2.82632C6.11699 2.42765 5.81699 2.12864 5.41699 2.02898C5.05032 1.92931 4.65032 2.09542 4.41699 2.39442C4.35032 2.46087 -1.14968 10.102 6.81699 16.5804C6.05032 18.2083 3.75032 19.6037 2.85032 20.0688C2.41699 20.2681 2.21699 20.7332 2.31699 21.1984C2.41699 21.6635 2.81699 21.9625 3.28366 21.9625H5.01699C15.1503 21.9625 19.7503 16.9459 19.8503 5.71667L21.9503 3.72332C22.3503 3.3911 22.3837 2.79309 22.0503 2.39442Z" fill="#505F79"/>
</svg>
